<svg width="42" height="42" viewBox="0 0 42 42" fill="none" xmlns="http://www.w3.org/2000/svg">
<path d="M31 12H28V15H31V12Z" fill="white"/>
<path d="M34 12H31V15H34V12Z" fill="white"/>
<path d="M28 12H25V15H28V12Z" fill="white"/>
<path d="M25 12H22V15H25V12Z" fill="white"/>
<path d="M22 12H19V15H22V12Z" fill="white"/>
<path d="M19 12H16V15H19V12Z" fill="white"/>
<path d="M16 12H13V15H16V12Z" fill="white"/>
<path d="M13 12H10V15H13V12Z" fill="white"/>
<path d="M10 12H7V15H10V12Z" fill="white"/>
<path d="M10 27H13V30H10V27Z" fill="white"/>
<path d="M7 27H10V30H7V27Z" fill="white"/>
<path d="M13 27H16V30H13V27Z" fill="white"/>
<path d="M16 27H19V30H16V27Z" fill="white"/>
<path d="M22 27H25V30H22V27Z" fill="white"/>
<path d="M25 27H28V30H25V27Z" fill="white"/>
<path d="M28 27H31V30H28V27Z" fill="white"/>
<path d="M31 27H34V30H31V27Z" fill="white"/>
<path d="M22 27H19V30H22V27Z" fill="white"/>
</svg>
