<svg width="42" height="42" viewBox="0 0 42 42" fill="none" xmlns="http://www.w3.org/2000/svg">
<path d="M10 28H13V31H10V28Z" fill="white"/>
<path d="M7 31H10V34H7V31Z" fill="white"/>
<path d="M13 25H16V28H13V25Z" fill="white"/>
<path d="M16 22H19V25H16V22Z" fill="white"/>
<path d="M22 16H25V19H22V16Z" fill="white"/>
<path d="M25 13H28V16H25V13Z" fill="white"/>
<path d="M28 10H31V13H28V10Z" fill="white"/>
<path d="M31 7H34V10H31V7Z" fill="white"/>
<path d="M31 28H28V31H31V28Z" fill="white"/>
<path d="M34 31H31V34H34V31Z" fill="white"/>
<path d="M28 25H25V28H28V25Z" fill="white"/>
<path d="M25 22H22V25H25V22Z" fill="white"/>
<path d="M22 19H19V22H22V19Z" fill="white"/>
<path d="M22 19H19V22H22V19Z" fill="white"/>
<path d="M19 16H16V19H19V16Z" fill="white"/>
<path d="M16 13H13V16H16V13Z" fill="white"/>
<path d="M13 10H10V13H13V10Z" fill="white"/>
<path d="M10 7H7V10H10V7Z" fill="white"/>
</svg>
